<svg xmlns="http://www.w3.org/2000/svg" xmlns:xlink="http://www.w3.org/1999/xlink" width="400" zoomAndPan="magnify" viewBox="0 0 300 74.999997" height="100" preserveAspectRatio="xMidYMid meet" version="1.0"><defs><g/><clipPath id="99eb3dc187"><path d="M 60.429688 2.214844 L 242.679688 2.214844 L 242.679688 55.464844 L 60.429688 55.464844 Z M 60.429688 2.214844 " clip-rule="nonzero"/></clipPath><clipPath id="bd21521820"><path d="M 105 39 L 122 39 L 122 55.464844 L 105 55.464844 Z M 105 39 " clip-rule="nonzero"/></clipPath></defs><g clip-path="url(#99eb3dc187)"><path fill="#ffffff" d="M 117.894531 6.769531 L 148.25 37.125 L 235.15625 37.125 L 242.734375 46.125 L 235.15625 55.125 L 226.558594 55.125 L 224.152344 50.316406 L 218.539062 50.316406 L 216.136719 55.125 L 210.742188 55.125 L 208.335938 50.316406 L 202.796875 50.316406 L 200.394531 55.125 L 195.035156 55.125 L 192.632812 50.316406 L 187.019531 50.316406 L 184.613281 55.125 L 148.285156 55.125 L 113.523438 20.363281 L 78.574219 55.125 L 60.574219 55.125 L 79.339844 36.359375 L 79.339844 18.175781 L 91.914062 18.175781 L 91.914062 23.789062 C 99.089844 16.609375 106.304688 9.394531 113.484375 2.214844 Z M 151.671875 40.550781 L 152.875 41.753906 L 234.574219 41.753906 L 234.574219 40.550781 Z M 151.671875 40.550781 " fill-opacity="1" fill-rule="nonzero"/></g><g clip-path="url(#bd21521820)"><path fill="#ffffff" d="M 105.722656 39.53125 L 112.320312 39.53125 L 112.320312 46.308594 L 105.722656 46.308594 Z M 114.503906 39.53125 L 121.101562 39.53125 L 121.101562 46.308594 L 114.503906 46.308594 Z M 121.101562 48.3125 L 121.101562 55.089844 L 114.503906 55.089844 L 114.503906 48.3125 Z M 112.320312 55.125 L 105.722656 55.125 L 105.722656 48.347656 L 112.320312 48.347656 Z M 112.320312 55.125 " fill-opacity="1" fill-rule="nonzero"/></g><g fill="#ffffff" fill-opacity="1"><g transform="translate(28.224268, 69.535841)"><g><path d="M 6.015625 0 L 1.53125 0 C 1.3125 0 1.203125 -0.109375 1.203125 -0.328125 L 1.203125 -11.875 C 1.203125 -12.09375 1.3125 -12.203125 1.53125 -12.203125 L 5.875 -12.203125 C 6.625 -12.203125 7.253906 -12.117188 7.765625 -11.953125 C 8.285156 -11.796875 8.695312 -11.570312 9 -11.28125 C 9.3125 -10.988281 9.535156 -10.65625 9.671875 -10.28125 C 9.804688 -9.90625 9.875 -9.5 9.875 -9.0625 C 9.875 -8.425781 9.726562 -7.867188 9.4375 -7.390625 C 9.15625 -6.910156 8.765625 -6.535156 8.265625 -6.265625 C 8.765625 -6.097656 9.164062 -5.867188 9.46875 -5.578125 C 9.769531 -5.296875 9.988281 -4.972656 10.125 -4.609375 C 10.269531 -4.242188 10.34375 -3.859375 10.34375 -3.453125 C 10.34375 -3.128906 10.300781 -2.800781 10.21875 -2.46875 C 10.144531 -2.132812 10.007812 -1.816406 9.8125 -1.515625 C 9.625 -1.222656 9.363281 -0.960938 9.03125 -0.734375 C 8.695312 -0.503906 8.28125 -0.320312 7.78125 -0.1875 C 7.289062 -0.0625 6.703125 0 6.015625 0 Z M 3.984375 -9.796875 L 3.984375 -7.296875 L 5.953125 -7.296875 C 6.316406 -7.296875 6.601562 -7.347656 6.8125 -7.453125 C 7.019531 -7.566406 7.171875 -7.722656 7.265625 -7.921875 C 7.359375 -8.117188 7.40625 -8.335938 7.40625 -8.578125 C 7.40625 -8.816406 7.359375 -9.023438 7.265625 -9.203125 C 7.171875 -9.390625 7.007812 -9.535156 6.78125 -9.640625 C 6.550781 -9.742188 6.234375 -9.796875 5.828125 -9.796875 Z M 3.984375 -5.171875 L 3.984375 -2.40625 L 5.953125 -2.40625 C 6.378906 -2.40625 6.707031 -2.46875 6.9375 -2.59375 C 7.175781 -2.71875 7.335938 -2.882812 7.421875 -3.09375 C 7.515625 -3.3125 7.5625 -3.546875 7.5625 -3.796875 C 7.5625 -4.054688 7.507812 -4.289062 7.40625 -4.5 C 7.3125 -4.707031 7.148438 -4.867188 6.921875 -4.984375 C 6.691406 -5.109375 6.382812 -5.171875 6 -5.171875 Z M 3.984375 -5.171875 "/></g></g></g><g fill="#ffffff" fill-opacity="1"><g transform="translate(41.344723, 69.535841)"><g><path d="M 7.25 0.3125 C 6.28125 0.3125 5.394531 0.160156 4.59375 -0.140625 C 3.800781 -0.441406 3.113281 -0.875 2.53125 -1.4375 C 1.945312 -2 1.492188 -2.671875 1.171875 -3.453125 C 0.859375 -4.242188 0.703125 -5.125 0.703125 -6.09375 C 0.703125 -7.0625 0.859375 -7.9375 1.171875 -8.71875 C 1.492188 -9.507812 1.945312 -10.1875 2.53125 -10.75 C 3.113281 -11.320312 3.800781 -11.757812 4.59375 -12.0625 C 5.394531 -12.363281 6.28125 -12.515625 7.25 -12.515625 C 8.207031 -12.515625 9.085938 -12.363281 9.890625 -12.0625 C 10.691406 -11.757812 11.382812 -11.320312 11.96875 -10.75 C 12.550781 -10.1875 13 -9.507812 13.3125 -8.71875 C 13.632812 -7.9375 13.796875 -7.0625 13.796875 -6.09375 C 13.796875 -5.125 13.632812 -4.242188 13.3125 -3.453125 C 13 -2.671875 12.550781 -2 11.96875 -1.4375 C 11.382812 -0.875 10.691406 -0.441406 9.890625 -0.140625 C 9.085938 0.160156 8.207031 0.3125 7.25 0.3125 Z M 7.25 -2.21875 C 7.789062 -2.21875 8.289062 -2.304688 8.75 -2.484375 C 9.21875 -2.671875 9.617188 -2.929688 9.953125 -3.265625 C 10.285156 -3.609375 10.546875 -4.015625 10.734375 -4.484375 C 10.921875 -4.960938 11.015625 -5.5 11.015625 -6.09375 C 11.015625 -6.6875 10.921875 -7.222656 10.734375 -7.703125 C 10.546875 -8.179688 10.285156 -8.585938 9.953125 -8.921875 C 9.617188 -9.265625 9.21875 -9.523438 8.75 -9.703125 C 8.289062 -9.878906 7.789062 -9.96875 7.25 -9.96875 C 6.695312 -9.96875 6.191406 -9.878906 5.734375 -9.703125 C 5.273438 -9.523438 4.875 -9.265625 4.53125 -8.921875 C 4.195312 -8.585938 3.9375 -8.179688 3.75 -7.703125 C 3.570312 -7.222656 3.484375 -6.6875 3.484375 -6.09375 C 3.484375 -5.507812 3.578125 -4.976562 3.765625 -4.5 C 3.953125 -4.019531 4.210938 -3.609375 4.546875 -3.265625 C 4.878906 -2.929688 5.273438 -2.671875 5.734375 -2.484375 C 6.191406 -2.304688 6.695312 -2.21875 7.25 -2.21875 Z M 7.25 -2.21875 "/></g></g></g><g fill="#ffffff" fill-opacity="1"><g transform="translate(57.86444, 69.535841)"><g><path d="M 7.25 0.3125 C 6.28125 0.3125 5.394531 0.160156 4.59375 -0.140625 C 3.800781 -0.441406 3.113281 -0.875 2.53125 -1.4375 C 1.945312 -2 1.492188 -2.671875 1.171875 -3.453125 C 0.859375 -4.242188 0.703125 -5.125 0.703125 -6.09375 C 0.703125 -7.0625 0.859375 -7.9375 1.171875 -8.71875 C 1.492188 -9.507812 1.945312 -10.1875 2.53125 -10.75 C 3.113281 -11.320312 3.800781 -11.757812 4.59375 -12.0625 C 5.394531 -12.363281 6.28125 -12.515625 7.25 -12.515625 C 8.207031 -12.515625 9.085938 -12.363281 9.890625 -12.0625 C 10.691406 -11.757812 11.382812 -11.320312 11.96875 -10.75 C 12.550781 -10.1875 13 -9.507812 13.3125 -8.71875 C 13.632812 -7.9375 13.796875 -7.0625 13.796875 -6.09375 C 13.796875 -5.125 13.632812 -4.242188 13.3125 -3.453125 C 13 -2.671875 12.550781 -2 11.96875 -1.4375 C 11.382812 -0.875 10.691406 -0.441406 9.890625 -0.140625 C 9.085938 0.160156 8.207031 0.3125 7.25 0.3125 Z M 7.25 -2.21875 C 7.789062 -2.21875 8.289062 -2.304688 8.75 -2.484375 C 9.21875 -2.671875 9.617188 -2.929688 9.953125 -3.265625 C 10.285156 -3.609375 10.546875 -4.015625 10.734375 -4.484375 C 10.921875 -4.960938 11.015625 -5.5 11.015625 -6.09375 C 11.015625 -6.6875 10.921875 -7.222656 10.734375 -7.703125 C 10.546875 -8.179688 10.285156 -8.585938 9.953125 -8.921875 C 9.617188 -9.265625 9.21875 -9.523438 8.75 -9.703125 C 8.289062 -9.878906 7.789062 -9.96875 7.25 -9.96875 C 6.695312 -9.96875 6.191406 -9.878906 5.734375 -9.703125 C 5.273438 -9.523438 4.875 -9.265625 4.53125 -8.921875 C 4.195312 -8.585938 3.9375 -8.179688 3.75 -7.703125 C 3.570312 -7.222656 3.484375 -6.6875 3.484375 -6.09375 C 3.484375 -5.507812 3.578125 -4.976562 3.765625 -4.5 C 3.953125 -4.019531 4.210938 -3.609375 4.546875 -3.265625 C 4.878906 -2.929688 5.273438 -2.671875 5.734375 -2.484375 C 6.191406 -2.304688 6.695312 -2.21875 7.25 -2.21875 Z M 7.25 -2.21875 "/></g></g></g><g fill="#ffffff" fill-opacity="1"><g transform="translate(74.384157, 69.535841)"><g><path d="M 5.625 0 L 3.484375 0 C 3.265625 0 3.15625 -0.109375 3.15625 -0.328125 L 3.15625 -9.796875 L 0.609375 -9.796875 C 0.390625 -9.796875 0.28125 -9.90625 0.28125 -10.125 L 0.28125 -11.875 C 0.28125 -12.09375 0.390625 -12.203125 0.609375 -12.203125 L 8.484375 -12.203125 C 8.703125 -12.203125 8.8125 -12.09375 8.8125 -11.875 L 8.8125 -10.125 C 8.8125 -9.90625 8.703125 -9.796875 8.484375 -9.796875 L 5.953125 -9.796875 L 5.953125 -0.328125 C 5.953125 -0.109375 5.84375 0 5.625 0 Z M 5.625 0 "/></g></g></g><g fill="#ffffff" fill-opacity="1"><g transform="translate(85.503179, 69.535841)"><g><path d="M 4.875 0.3125 C 4.28125 0.3125 3.664062 0.253906 3.03125 0.140625 C 2.40625 0.0351562 1.71875 -0.132812 0.96875 -0.375 C 0.757812 -0.457031 0.691406 -0.597656 0.765625 -0.796875 L 1.359375 -2.546875 C 1.429688 -2.742188 1.570312 -2.804688 1.78125 -2.734375 C 2.332031 -2.515625 2.875 -2.347656 3.40625 -2.234375 C 3.945312 -2.117188 4.429688 -2.0625 4.859375 -2.0625 C 5.359375 -2.0625 5.757812 -2.148438 6.0625 -2.328125 C 6.375 -2.503906 6.53125 -2.78125 6.53125 -3.15625 C 6.53125 -3.382812 6.445312 -3.59375 6.28125 -3.78125 C 6.113281 -3.96875 5.890625 -4.144531 5.609375 -4.3125 C 5.328125 -4.476562 5.007812 -4.644531 4.65625 -4.8125 C 4.3125 -4.988281 3.957031 -5.171875 3.59375 -5.359375 C 3.238281 -5.546875 2.894531 -5.753906 2.5625 -5.984375 C 2.226562 -6.210938 1.929688 -6.46875 1.671875 -6.75 C 1.421875 -7.03125 1.21875 -7.351562 1.0625 -7.71875 C 0.914062 -8.09375 0.84375 -8.519531 0.84375 -9 C 0.84375 -9.625 0.957031 -10.160156 1.1875 -10.609375 C 1.425781 -11.054688 1.742188 -11.421875 2.140625 -11.703125 C 2.535156 -11.984375 2.984375 -12.1875 3.484375 -12.3125 C 3.992188 -12.445312 4.519531 -12.515625 5.0625 -12.515625 C 5.382812 -12.515625 5.726562 -12.488281 6.09375 -12.4375 C 6.46875 -12.382812 6.847656 -12.3125 7.234375 -12.21875 C 7.628906 -12.132812 8.007812 -12.03125 8.375 -11.90625 C 8.582031 -11.832031 8.644531 -11.695312 8.5625 -11.5 L 8.046875 -9.828125 C 7.972656 -9.617188 7.835938 -9.554688 7.640625 -9.640625 C 7.234375 -9.796875 6.804688 -9.914062 6.359375 -10 C 5.921875 -10.09375 5.515625 -10.140625 5.140625 -10.140625 C 4.867188 -10.140625 4.617188 -10.109375 4.390625 -10.046875 C 4.171875 -9.984375 3.992188 -9.882812 3.859375 -9.75 C 3.734375 -9.613281 3.671875 -9.429688 3.671875 -9.203125 C 3.671875 -8.972656 3.734375 -8.769531 3.859375 -8.59375 C 3.992188 -8.425781 4.175781 -8.265625 4.40625 -8.109375 C 4.644531 -7.960938 4.921875 -7.8125 5.234375 -7.65625 C 5.546875 -7.507812 5.882812 -7.351562 6.25 -7.1875 C 6.613281 -7 6.976562 -6.789062 7.34375 -6.5625 C 7.71875 -6.34375 8.054688 -6.082031 8.359375 -5.78125 C 8.660156 -5.488281 8.898438 -5.132812 9.078125 -4.71875 C 9.265625 -4.3125 9.359375 -3.832031 9.359375 -3.28125 C 9.359375 -2.75 9.273438 -2.285156 9.109375 -1.890625 C 8.941406 -1.492188 8.710938 -1.15625 8.421875 -0.875 C 8.128906 -0.59375 7.789062 -0.363281 7.40625 -0.1875 C 7.03125 -0.0078125 6.625 0.113281 6.1875 0.1875 C 5.757812 0.269531 5.320312 0.3125 4.875 0.3125 Z M 4.875 0.3125 "/></g></g></g><g fill="#ffffff" fill-opacity="1"><g transform="translate(97.527611, 69.535841)"><g/></g></g><g fill="#ffffff" fill-opacity="1"><g transform="translate(104.580226, 69.535841)"><g><path d="M 7.25 0.3125 C 6.28125 0.3125 5.394531 0.160156 4.59375 -0.140625 C 3.800781 -0.441406 3.113281 -0.875 2.53125 -1.4375 C 1.945312 -2 1.492188 -2.671875 1.171875 -3.453125 C 0.859375 -4.242188 0.703125 -5.125 0.703125 -6.09375 C 0.703125 -7.0625 0.859375 -7.9375 1.171875 -8.71875 C 1.492188 -9.507812 1.945312 -10.1875 2.53125 -10.75 C 3.113281 -11.320312 3.800781 -11.757812 4.59375 -12.0625 C 5.394531 -12.363281 6.28125 -12.515625 7.25 -12.515625 C 8.207031 -12.515625 9.085938 -12.363281 9.890625 -12.0625 C 10.691406 -11.757812 11.382812 -11.320312 11.96875 -10.75 C 12.550781 -10.1875 13 -9.507812 13.3125 -8.71875 C 13.632812 -7.9375 13.796875 -7.0625 13.796875 -6.09375 C 13.796875 -5.125 13.632812 -4.242188 13.3125 -3.453125 C 13 -2.671875 12.550781 -2 11.96875 -1.4375 C 11.382812 -0.875 10.691406 -0.441406 9.890625 -0.140625 C 9.085938 0.160156 8.207031 0.3125 7.25 0.3125 Z M 7.25 -2.21875 C 7.789062 -2.21875 8.289062 -2.304688 8.75 -2.484375 C 9.21875 -2.671875 9.617188 -2.929688 9.953125 -3.265625 C 10.285156 -3.609375 10.546875 -4.015625 10.734375 -4.484375 C 10.921875 -4.960938 11.015625 -5.5 11.015625 -6.09375 C 11.015625 -6.6875 10.921875 -7.222656 10.734375 -7.703125 C 10.546875 -8.179688 10.285156 -8.585938 9.953125 -8.921875 C 9.617188 -9.265625 9.21875 -9.523438 8.75 -9.703125 C 8.289062 -9.878906 7.789062 -9.96875 7.25 -9.96875 C 6.695312 -9.96875 6.191406 -9.878906 5.734375 -9.703125 C 5.273438 -9.523438 4.875 -9.265625 4.53125 -8.921875 C 4.195312 -8.585938 3.9375 -8.179688 3.75 -7.703125 C 3.570312 -7.222656 3.484375 -6.6875 3.484375 -6.09375 C 3.484375 -5.507812 3.578125 -4.976562 3.765625 -4.5 C 3.953125 -4.019531 4.210938 -3.609375 4.546875 -3.265625 C 4.878906 -2.929688 5.273438 -2.671875 5.734375 -2.484375 C 6.191406 -2.304688 6.695312 -2.21875 7.25 -2.21875 Z M 7.25 -2.21875 "/></g></g></g><g fill="#ffffff" fill-opacity="1"><g transform="translate(121.099943, 69.535841)"><g><path d="M 3.59375 0 L 1.546875 0 C 1.328125 0 1.21875 -0.109375 1.21875 -0.328125 L 1.21875 -11.921875 C 1.21875 -12.203125 1.296875 -12.378906 1.453125 -12.453125 C 1.609375 -12.535156 1.796875 -12.472656 2.015625 -12.265625 L 8.90625 -5.390625 L 8.90625 -11.875 C 8.90625 -12.09375 9.015625 -12.203125 9.234375 -12.203125 L 11.28125 -12.203125 C 11.5 -12.203125 11.609375 -12.09375 11.609375 -11.875 L 11.609375 -0.28125 C 11.609375 -0.101562 11.566406 0.03125 11.484375 0.125 C 11.398438 0.226562 11.289062 0.269531 11.15625 0.25 C 11.03125 0.238281 10.890625 0.15625 10.734375 0 L 3.90625 -6.96875 L 3.90625 -0.328125 C 3.90625 -0.109375 3.800781 0 3.59375 0 Z M 3.59375 0 "/></g></g></g><g fill="#ffffff" fill-opacity="1"><g transform="translate(135.927972, 69.535841)"><g/></g></g><g fill="#ffffff" fill-opacity="1"><g transform="translate(142.980587, 69.535841)"><g><path d="M 5.625 0 L 3.484375 0 C 3.265625 0 3.15625 -0.109375 3.15625 -0.328125 L 3.15625 -9.796875 L 0.609375 -9.796875 C 0.390625 -9.796875 0.28125 -9.90625 0.28125 -10.125 L 0.28125 -11.875 C 0.28125 -12.09375 0.390625 -12.203125 0.609375 -12.203125 L 8.484375 -12.203125 C 8.703125 -12.203125 8.8125 -12.09375 8.8125 -11.875 L 8.8125 -10.125 C 8.8125 -9.90625 8.703125 -9.796875 8.484375 -9.796875 L 5.953125 -9.796875 L 5.953125 -0.328125 C 5.953125 -0.109375 5.84375 0 5.625 0 Z M 5.625 0 "/></g></g></g><g fill="#ffffff" fill-opacity="1"><g transform="translate(154.099609, 69.535841)"><g><path d="M 3.65625 0 L 1.53125 0 C 1.3125 0 1.203125 -0.109375 1.203125 -0.328125 L 1.203125 -11.875 C 1.203125 -12.09375 1.3125 -12.203125 1.53125 -12.203125 L 3.65625 -12.203125 C 3.875 -12.203125 3.984375 -12.09375 3.984375 -11.875 L 3.984375 -6.453125 L 8.71875 -6.453125 L 8.71875 -11.875 C 8.71875 -12.09375 8.828125 -12.203125 9.046875 -12.203125 L 11.171875 -12.203125 C 11.390625 -12.203125 11.5 -12.09375 11.5 -11.875 L 11.5 -0.328125 C 11.5 -0.109375 11.390625 0 11.171875 0 L 9.046875 0 C 8.828125 0 8.71875 -0.109375 8.71875 -0.328125 L 8.71875 -4.046875 L 3.984375 -4.046875 L 3.984375 -0.328125 C 3.984375 -0.109375 3.875 0 3.65625 0 Z M 3.65625 0 "/></g></g></g><g fill="#ffffff" fill-opacity="1"><g transform="translate(168.816446, 69.535841)"><g><path d="M 8.65625 0 L 1.53125 0 C 1.3125 0 1.203125 -0.109375 1.203125 -0.328125 L 1.203125 -11.875 C 1.203125 -12.09375 1.3125 -12.203125 1.53125 -12.203125 L 8.65625 -12.203125 C 8.863281 -12.203125 8.96875 -12.09375 8.96875 -11.875 L 8.96875 -10.125 C 8.96875 -9.90625 8.863281 -9.796875 8.65625 -9.796875 L 3.984375 -9.796875 L 3.984375 -6.390625 L 8.015625 -6.390625 C 8.234375 -6.390625 8.34375 -6.28125 8.34375 -6.0625 L 8.34375 -4.4375 C 8.34375 -4.21875 8.234375 -4.109375 8.015625 -4.109375 L 3.984375 -4.109375 L 3.984375 -2.40625 L 8.65625 -2.40625 C 8.863281 -2.40625 8.96875 -2.296875 8.96875 -2.078125 L 8.96875 -0.328125 C 8.96875 -0.109375 8.863281 0 8.65625 0 Z M 8.65625 0 "/></g></g></g><g fill="#ffffff" fill-opacity="1"><g transform="translate(180.642324, 69.535841)"><g/></g></g><g fill="#ffffff" fill-opacity="1"><g transform="translate(187.694939, 69.535841)"><g><path d="M 7.25 0.3125 C 6.28125 0.3125 5.394531 0.160156 4.59375 -0.140625 C 3.800781 -0.441406 3.113281 -0.875 2.53125 -1.4375 C 1.945312 -2 1.492188 -2.671875 1.171875 -3.453125 C 0.859375 -4.242188 0.703125 -5.125 0.703125 -6.09375 C 0.703125 -7.0625 0.859375 -7.9375 1.171875 -8.71875 C 1.492188 -9.507812 1.945312 -10.1875 2.53125 -10.75 C 3.113281 -11.320312 3.800781 -11.757812 4.59375 -12.0625 C 5.394531 -12.363281 6.28125 -12.515625 7.25 -12.515625 C 8.320312 -12.515625 9.289062 -12.320312 10.15625 -11.9375 C 11.019531 -11.550781 11.742188 -11.019531 12.328125 -10.34375 C 12.472656 -10.1875 12.453125 -10.039062 12.265625 -9.90625 L 10.515625 -8.71875 C 10.359375 -8.601562 10.210938 -8.625 10.078125 -8.78125 C 9.742188 -9.15625 9.332031 -9.445312 8.84375 -9.65625 C 8.363281 -9.863281 7.832031 -9.96875 7.25 -9.96875 C 6.695312 -9.96875 6.191406 -9.878906 5.734375 -9.703125 C 5.273438 -9.523438 4.875 -9.265625 4.53125 -8.921875 C 4.195312 -8.585938 3.9375 -8.179688 3.75 -7.703125 C 3.570312 -7.222656 3.484375 -6.6875 3.484375 -6.09375 C 3.484375 -5.488281 3.578125 -4.9375 3.765625 -4.4375 C 3.953125 -3.945312 4.210938 -3.523438 4.546875 -3.171875 C 4.878906 -2.828125 5.273438 -2.5625 5.734375 -2.375 C 6.191406 -2.1875 6.695312 -2.09375 7.25 -2.09375 C 7.8125 -2.09375 8.320312 -2.191406 8.78125 -2.390625 C 9.25 -2.585938 9.648438 -2.863281 9.984375 -3.21875 L 9.984375 -4.109375 L 7.59375 -4.109375 C 7.382812 -4.109375 7.28125 -4.21875 7.28125 -4.4375 L 7.28125 -6.0625 C 7.28125 -6.28125 7.382812 -6.390625 7.59375 -6.390625 L 12.203125 -6.390625 C 12.421875 -6.390625 12.53125 -6.28125 12.53125 -6.0625 L 12.53125 -2.3125 C 12.53125 -2.164062 12.488281 -2.046875 12.40625 -1.953125 C 11.84375 -1.234375 11.117188 -0.675781 10.234375 -0.28125 C 9.347656 0.113281 8.351562 0.3125 7.25 0.3125 Z M 7.25 0.3125 "/></g></g></g><g fill="#ffffff" fill-opacity="1"><g transform="translate(203.102748, 69.535841)"><g><path d="M 8.625 -4.5 L 10.8125 -0.390625 C 10.875 -0.273438 10.878906 -0.179688 10.828125 -0.109375 C 10.785156 -0.0351562 10.707031 0 10.59375 0 L 8.15625 0 C 7.988281 0 7.863281 -0.0820312 7.78125 -0.25 L 5.859375 -4.0625 L 4 -4.0625 L 4 -0.328125 C 4 -0.109375 3.890625 0 3.671875 0 L 1.53125 0 C 1.3125 0 1.203125 -0.109375 1.203125 -0.328125 L 1.203125 -11.875 C 1.203125 -12.09375 1.3125 -12.203125 1.53125 -12.203125 L 6.078125 -12.203125 C 6.929688 -12.203125 7.644531 -12.097656 8.21875 -11.890625 C 8.789062 -11.691406 9.25 -11.410156 9.59375 -11.046875 C 9.945312 -10.679688 10.195312 -10.253906 10.34375 -9.765625 C 10.5 -9.285156 10.578125 -8.765625 10.578125 -8.203125 C 10.578125 -7.304688 10.40625 -6.539062 10.0625 -5.90625 C 9.726562 -5.28125 9.25 -4.8125 8.625 -4.5 Z M 5.640625 -9.796875 L 4 -9.796875 L 4 -6.46875 L 5.640625 -6.46875 C 5.765625 -6.46875 5.914062 -6.472656 6.09375 -6.484375 C 6.28125 -6.492188 6.472656 -6.523438 6.671875 -6.578125 C 6.867188 -6.628906 7.050781 -6.710938 7.21875 -6.828125 C 7.394531 -6.953125 7.535156 -7.125 7.640625 -7.34375 C 7.753906 -7.5625 7.8125 -7.84375 7.8125 -8.1875 C 7.8125 -8.507812 7.757812 -8.769531 7.65625 -8.96875 C 7.550781 -9.175781 7.414062 -9.335938 7.25 -9.453125 C 7.09375 -9.566406 6.914062 -9.644531 6.71875 -9.6875 C 6.53125 -9.738281 6.34375 -9.769531 6.15625 -9.78125 C 5.96875 -9.789062 5.796875 -9.796875 5.640625 -9.796875 Z M 5.640625 -9.796875 "/></g></g></g><g fill="#ffffff" fill-opacity="1"><g transform="translate(216.691794, 69.535841)"><g><path d="M 7.25 0.3125 C 6.28125 0.3125 5.394531 0.160156 4.59375 -0.140625 C 3.800781 -0.441406 3.113281 -0.875 2.53125 -1.4375 C 1.945312 -2 1.492188 -2.671875 1.171875 -3.453125 C 0.859375 -4.242188 0.703125 -5.125 0.703125 -6.09375 C 0.703125 -7.0625 0.859375 -7.9375 1.171875 -8.71875 C 1.492188 -9.507812 1.945312 -10.1875 2.53125 -10.75 C 3.113281 -11.320312 3.800781 -11.757812 4.59375 -12.0625 C 5.394531 -12.363281 6.28125 -12.515625 7.25 -12.515625 C 8.207031 -12.515625 9.085938 -12.363281 9.890625 -12.0625 C 10.691406 -11.757812 11.382812 -11.320312 11.96875 -10.75 C 12.550781 -10.1875 13 -9.507812 13.3125 -8.71875 C 13.632812 -7.9375 13.796875 -7.0625 13.796875 -6.09375 C 13.796875 -5.125 13.632812 -4.242188 13.3125 -3.453125 C 13 -2.671875 12.550781 -2 11.96875 -1.4375 C 11.382812 -0.875 10.691406 -0.441406 9.890625 -0.140625 C 9.085938 0.160156 8.207031 0.3125 7.25 0.3125 Z M 7.25 -2.21875 C 7.789062 -2.21875 8.289062 -2.304688 8.75 -2.484375 C 9.21875 -2.671875 9.617188 -2.929688 9.953125 -3.265625 C 10.285156 -3.609375 10.546875 -4.015625 10.734375 -4.484375 C 10.921875 -4.960938 11.015625 -5.5 11.015625 -6.09375 C 11.015625 -6.6875 10.921875 -7.222656 10.734375 -7.703125 C 10.546875 -8.179688 10.285156 -8.585938 9.953125 -8.921875 C 9.617188 -9.265625 9.21875 -9.523438 8.75 -9.703125 C 8.289062 -9.878906 7.789062 -9.96875 7.25 -9.96875 C 6.695312 -9.96875 6.191406 -9.878906 5.734375 -9.703125 C 5.273438 -9.523438 4.875 -9.265625 4.53125 -8.921875 C 4.195312 -8.585938 3.9375 -8.179688 3.75 -7.703125 C 3.570312 -7.222656 3.484375 -6.6875 3.484375 -6.09375 C 3.484375 -5.507812 3.578125 -4.976562 3.765625 -4.5 C 3.953125 -4.019531 4.210938 -3.609375 4.546875 -3.265625 C 4.878906 -2.929688 5.273438 -2.671875 5.734375 -2.484375 C 6.191406 -2.304688 6.695312 -2.21875 7.25 -2.21875 Z M 7.25 -2.21875 "/></g></g></g><g fill="#ffffff" fill-opacity="1"><g transform="translate(233.211511, 69.535841)"><g><path d="M 6.25 0.3125 C 5.5625 0.3125 4.90625 0.226562 4.28125 0.0625 C 3.664062 -0.101562 3.117188 -0.359375 2.640625 -0.703125 C 2.160156 -1.054688 1.78125 -1.507812 1.5 -2.0625 C 1.226562 -2.613281 1.09375 -3.273438 1.09375 -4.046875 L 1.09375 -11.875 C 1.09375 -12.09375 1.203125 -12.203125 1.421875 -12.203125 L 3.609375 -12.203125 C 3.828125 -12.203125 3.9375 -12.09375 3.9375 -11.875 L 3.9375 -4.703125 C 3.9375 -4.109375 4.023438 -3.628906 4.203125 -3.265625 C 4.390625 -2.898438 4.65625 -2.632812 5 -2.46875 C 5.34375 -2.300781 5.757812 -2.21875 6.25 -2.21875 C 6.738281 -2.21875 7.15625 -2.300781 7.5 -2.46875 C 7.84375 -2.632812 8.101562 -2.898438 8.28125 -3.265625 C 8.457031 -3.628906 8.546875 -4.109375 8.546875 -4.703125 L 8.546875 -11.875 C 8.546875 -12.09375 8.65625 -12.203125 8.875 -12.203125 L 11.0625 -12.203125 C 11.28125 -12.203125 11.390625 -12.09375 11.390625 -11.875 L 11.390625 -4.046875 C 11.390625 -3.273438 11.253906 -2.613281 10.984375 -2.0625 C 10.710938 -1.507812 10.335938 -1.054688 9.859375 -0.703125 C 9.390625 -0.359375 8.84375 -0.101562 8.21875 0.0625 C 7.601562 0.226562 6.945312 0.3125 6.25 0.3125 Z M 6.25 0.3125 "/></g></g></g><g fill="#ffffff" fill-opacity="1"><g transform="translate(247.698036, 69.535841)"><g><path d="M 3.59375 0 L 1.546875 0 C 1.328125 0 1.21875 -0.109375 1.21875 -0.328125 L 1.21875 -11.921875 C 1.21875 -12.203125 1.296875 -12.378906 1.453125 -12.453125 C 1.609375 -12.535156 1.796875 -12.472656 2.015625 -12.265625 L 8.90625 -5.390625 L 8.90625 -11.875 C 8.90625 -12.09375 9.015625 -12.203125 9.234375 -12.203125 L 11.28125 -12.203125 C 11.5 -12.203125 11.609375 -12.09375 11.609375 -11.875 L 11.609375 -0.28125 C 11.609375 -0.101562 11.566406 0.03125 11.484375 0.125 C 11.398438 0.226562 11.289062 0.269531 11.15625 0.25 C 11.03125 0.238281 10.890625 0.15625 10.734375 0 L 3.90625 -6.96875 L 3.90625 -0.328125 C 3.90625 -0.109375 3.800781 0 3.59375 0 Z M 3.59375 0 "/></g></g></g><g fill="#ffffff" fill-opacity="1"><g transform="translate(262.526053, 69.535841)"><g><path d="M 5.21875 0 L 1.53125 0 C 1.3125 0 1.203125 -0.109375 1.203125 -0.328125 L 1.203125 -11.875 C 1.203125 -12.09375 1.3125 -12.203125 1.53125 -12.203125 L 5.21875 -12.203125 C 6.6875 -12.203125 7.90625 -11.957031 8.875 -11.46875 C 9.84375 -10.988281 10.566406 -10.296875 11.046875 -9.390625 C 11.535156 -8.484375 11.78125 -7.382812 11.78125 -6.09375 C 11.78125 -4.820312 11.539062 -3.734375 11.0625 -2.828125 C 10.59375 -1.921875 9.867188 -1.222656 8.890625 -0.734375 C 7.921875 -0.242188 6.695312 0 5.21875 0 Z M 4.015625 -9.796875 L 4.015625 -2.40625 L 5.21875 -2.40625 C 6.46875 -2.40625 7.410156 -2.726562 8.046875 -3.375 C 8.691406 -4.03125 9.015625 -4.945312 9.015625 -6.125 C 9.015625 -7.3125 8.691406 -8.21875 8.046875 -8.84375 C 7.410156 -9.476562 6.46875 -9.796875 5.21875 -9.796875 Z M 4.015625 -9.796875 "/></g></g></g></svg>